<svg xmlns="http://www.w3.org/2000/svg" width="201" height="201" viewBox="0 0 201 201"><defs><mask id="13qwb" width="2" height="2" x="-1" y="-1"><path fill="#fff" d="M9 9h183v183H9z"/><path d="M100.5 9c50.534 0 91.5 40.966 91.5 91.5S151.034 192 100.5 192 9 151.034 9 100.5 49.966 9 100.5 9z"/></mask><filter id="13qwa" width="223" height="223" x="-11" y="-11" filterUnits="userSpaceOnUse"><feOffset in="SourceGraphic" result="FeOffset1179Out"/><feGaussianBlur in="FeOffset1179Out" result="FeGaussianBlur1180Out" stdDeviation="4 4"/></filter><clipPath id="13qwc"><path fill="#fff" d="M100.5 9c50.534 0 91.5 40.966 91.5 91.5S151.034 192 100.5 192 9 151.034 9 100.5 49.966 9 100.5 9z"/></clipPath></defs><g><g><g filter="url(#13qwa)"><path fill="none" d="M100.5 9c50.534 0 91.5 40.966 91.5 91.5S151.034 192 100.5 192 9 151.034 9 100.5 49.966 9 100.5 9z" mask="url(&quot;#13qwb&quot;)"/><path fill="#356ee6" d="M100.5 9c50.534 0 91.5 40.966 91.5 91.5S151.034 192 100.5 192 9 151.034 9 100.5 49.966 9 100.5 9z"/></g><path fill="#006cff" d="M100.5 9c50.534 0 91.5 40.966 91.5 91.5S151.034 192 100.5 192 9 151.034 9 100.5 49.966 9 100.5 9z"/><path fill="none" stroke="#006cff" stroke-miterlimit="50" stroke-width="16" d="M100.5 9c50.534 0 91.5 40.966 91.5 91.5S151.034 192 100.5 192 9 151.034 9 100.5 49.966 9 100.5 9z" clip-path="url(&quot;#13qwc&quot;)"/></g><g><path fill="#006cff" d="M100.5 24c42.25 0 76.5 34.25 76.5 76.5S142.75 177 100.5 177 24 142.75 24 100.5 58.25 24 100.5 24z"/></g></g></svg>