<svg xmlns="http://www.w3.org/2000/svg" width="183" height="183" viewBox="0 0 183 183"><defs><clipPath id="9xn3a"><path fill="#fff" d="M91.5 0C142.034 0 183 40.966 183 91.5S142.034 183 91.5 183 0 142.034 0 91.5 40.966 0 91.5 0z"/></clipPath></defs><g><g><path fill="none" stroke="#006cff" stroke-miterlimit="50" stroke-width="16" d="M91.5 0C142.034 0 183 40.966 183 91.5S142.034 183 91.5 183 0 142.034 0 91.5 40.966 0 91.5 0z" clip-path="url(&quot;#9xn3a&quot;)"/></g><g><path fill="#006cff" d="M91.5 15c42.25 0 76.5 34.25 76.5 76.5S133.75 168 91.5 168 15 133.75 15 91.5 49.25 15 91.5 15z"/></g><g><g><text dominant-baseline="text-before-edge" style="line-height:34px" fill="#fff" font-family="'icofont','icofont'" font-size="60" font-style="none" font-weight="400" transform="translate(61 67)"><tspan style="font-kerning:normal"></tspan></text></g></g></g></svg>