<svg id="icons" enable-background="new 0 0 64 64" height="512" viewBox="0 0 64 64" width="512" xmlns="http://www.w3.org/2000/svg"><path d="m6 34.506h3c.553 0 1-.447 1-1v-3c0-.553-.447-1-1-1h-3c-.553 0-1 .447-1 1v3c0 .553.447 1 1 1zm1-3h1v1h-1z"/><path d="m15 29.506h-3c-.553 0-1 .447-1 1v3c0 .553.447 1 1 1h3c.553 0 1-.447 1-1v-3c0-.553-.447-1-1-1zm-1 3h-1v-1h1z"/><path d="m17.998 34.506h3c.553 0 1-.447 1-1v-3c0-.553-.447-1-1-1h-3c-.553 0-1 .447-1 1v3c0 .553.447 1 1 1zm1-3h1v1h-1z"/><path d="m23.998 34.506h3c.553 0 1-.447 1-1v-3c0-.553-.447-1-1-1h-3c-.553 0-1 .447-1 1v3c0 .553.447 1 1 1zm1-3h1v1h-1z"/><path d="m29.996 34.506h3c.553 0 1-.447 1-1v-3c0-.553-.447-1-1-1h-3c-.553 0-1 .447-1 1v3c0 .553.447 1 1 1zm1-3h1v1h-1z"/><path d="m35.996 34.506h3c.553 0 1-.447 1-1v-3c0-.553-.447-1-1-1h-3c-.553 0-1 .447-1 1v3c0 .553.447 1 1 1zm1-3h1v1h-1z"/><path d="m41.994 34.506h3c.553 0 1-.447 1-1v-3c0-.553-.447-1-1-1h-3c-.553 0-1 .447-1 1v3c0 .553.447 1 1 1zm1-3h1v1h-1z"/><path d="m51 29.506h-3c-.553 0-1 .447-1 1v3c0 .553.447 1 1 1h3c.553 0 1-.447 1-1v-3c0-.553-.447-1-1-1zm-1 3h-1v-1h1z"/><path d="m15 35.505h-9c-.553 0-1 .447-1 1v3c0 .553.447 1 1 1h9c.553 0 1-.447 1-1v-3c0-.553-.447-1-1-1zm-1 3h-7v-1h7z"/><path d="m17.998 40.505h3c.553 0 1-.447 1-1v-3c0-.553-.447-1-1-1h-3c-.553 0-1 .447-1 1v3c0 .553.447 1 1 1zm1-3h1v1h-1z"/><path d="m23.998 40.505h3c.553 0 1-.447 1-1v-3c0-.553-.447-1-1-1h-3c-.553 0-1 .447-1 1v3c0 .553.447 1 1 1zm1-3h1v1h-1z"/><path d="m29.996 40.505h3c.553 0 1-.447 1-1v-3c0-.553-.447-1-1-1h-3c-.553 0-1 .447-1 1v3c0 .553.447 1 1 1zm1-3h1v1h-1z"/><path d="m35.996 40.505h3c.553 0 1-.447 1-1v-3c0-.553-.447-1-1-1h-3c-.553 0-1 .447-1 1v3c0 .553.447 1 1 1zm1-3h1v1h-1z"/><path d="m41.994 40.505h3c.553 0 1-.447 1-1v-3c0-.553-.447-1-1-1h-3c-.553 0-1 .447-1 1v3c0 .553.447 1 1 1zm1-3h1v1h-1z"/><path d="m9 41.504h-3c-.553 0-1 .447-1 1v3c0 .553.447 1 1 1h3c.553 0 1-.447 1-1v-3c0-.553-.447-1-1-1zm-1 3h-1v-1h1z"/><path d="m15 41.504h-3c-.553 0-1 .447-1 1v3c0 .553.447 1 1 1h3c.553 0 1-.447 1-1v-3c0-.553-.447-1-1-1zm-1 3h-1v-1h1z"/><path d="m45.002 41.504h-27.004c-.553 0-1 .447-1 1v3c0 .553.447 1 1 1h27.004c.553 0 1-.447 1-1v-3c0-.553-.447-1-1-1zm-1 3h-25.004v-1h25.004z"/><path d="m51 35.498h-3c-.553 0-1 .447-1 1v3c0 .553.447 1 1 1h3c.553 0 1-.447 1-1v-3c0-.553-.447-1-1-1zm-1 3h-1v-1h1z"/><path d="m50.994 41.504h-3c-.553 0-1 .447-1 1v3c0 .553.447 1 1 1h3c.553 0 1-.447 1-1v-3c0-.553-.447-1-1-1zm-1 3h-1v-1h1z"/><path d="m57 29.506h-3c-.553 0-1 .447-1 1v8.999c0 .553.447 1 1 1h3c.553 0 1-.447 1-1v-8.999c0-.553-.447-1-1-1zm-1 8.999h-1v-6.999h1z"/><path d="m57 41.504h-3c-.553 0-1 .447-1 1v3c0 .553.447 1 1 1h3c.553 0 1-.447 1-1v-3c0-.553-.447-1-1-1zm-1 3h-1v-1h1z"/><path d="m7.53 27.501c.552 0 1-.447 1-1s-.448-1-1-1h-.01c-.552 0-.994.447-.994 1s.452 1 1.004 1z"/><path d="m13.53 27.501c.552 0 1-.447 1-1s-.448-1-1-1h-.01c-.552 0-.994.447-.994 1s.452 1 1.004 1z"/><path d="m19.528 27.501c.552 0 1-.447 1-1s-.448-1-1-1h-.011c-.552 0-.994.447-.994 1s.453 1 1.005 1z"/><path d="m25.528 27.501c.552 0 1-.447 1-1s-.448-1-1-1h-.011c-.552 0-.994.447-.994 1s.453 1 1.005 1z"/><path d="m31.526 27.501c.552 0 1-.447 1-1s-.448-1-1-1h-.011c-.552 0-.994.447-.994 1s.453 1 1.005 1z"/><path d="m37.526 27.501c.552 0 1-.447 1-1s-.448-1-1-1h-.011c-.552 0-.994.447-.994 1s.453 1 1.005 1z"/><path d="m43.524 27.501c.552 0 1-.447 1-1s-.448-1-1-1h-.011c-.552 0-.994.447-.994 1s.453 1 1.005 1z"/><path d="m49.524 27.501c.552 0 1-.447 1-1s-.448-1-1-1h-.011c-.552 0-.994.447-.994 1s.453 1 1.005 1z"/><path d="m55.522 27.501c.552 0 1-.447 1-1s-.448-1-1-1h-.011c-.552 0-.994.447-.994 1s.453 1 1.005 1z"/><path d="m61.021 13.508c-.007 0-.013-.004-.02-.004h-60.001c-.553 0-1 .447-1 1s.447 1 1 1h59.992c.004 0 .006.002.01.002.551 0 .998.447.998.998s-.447.998-.998.998c-.002 0-.003.001-.005.001h-27.528c-1.654 0-3 1.346-3 3v1.003h-25.473c-2.202 0-3.994 1.792-3.994 3.995v20.999c0 2.203 1.792 3.995 3.994 3.995h53.001c.002 0 .003.001.005.001.003 0 .006-.001.01-.001h.029c.011 0 .02-.006.029-.006 2.164-.038 3.915-1.799 3.926-3.97 0-.007.004-.013.004-.02v-20.998c0-.007-.004-.013-.004-.02-.011-2.194-1.798-3.977-3.994-3.977-.002 0-.003.001-.005.001h-25.528v-1.003c0-.552.448-1 1-1h27.533c.004 0 .006-.002.01-.002 1.648-.004 2.988-1.346 2.988-2.996 0-1.647-1.334-2.985-2.979-2.996zm-1.023 11.993c0 .003.002.006.002.01v20.979c0 .004-.002.006-.002.01 0 1.098-.891 1.99-1.986 1.995h-53.016c-1.1 0-1.994-.895-1.994-1.995v-20.999c0-1.101.895-1.995 1.994-1.995h53.006c.001 0 .002-.001.003-.001 1.099.002 1.993.896 1.993 1.996z"/></svg>