<?xml version="1.0" encoding="UTF-8"?>
<svg xmlns="http://www.w3.org/2000/svg" xmlns:xlink="http://www.w3.org/1999/xlink" width="49pt" height="49pt" viewBox="0 0 49 49" version="1.1">
<g id="surface1">
<path   fill='#fff' style=" stroke:none;fill-rule:nonzero;fill:rgb(0%,0%,0%);fill-opacity:1;" d="M 47.089844 20.246094 L 25.628906 20.246094 C 24.636719 20.242188 22.886719 18.933594 22.625 18.15625 L 22.597656 18.09375 C 22.007812 16.90625 22.769531 15.980469 23.667969 14.90625 C 23.789062 14.757812 23.910156 14.605469 24.015625 14.480469 C 27.230469 10.84375 27.96875 8.34375 23.089844 4.726562 L 22.210938 5.5625 C 26.074219 8.417969 26.230469 10.117188 22.925781 13.84375 C 22.8125 13.984375 22.691406 14.125 22.574219 14.273438 C 21.652344 15.382812 20.515625 16.757812 21.359375 18.492188 C 21.566406 19.050781 22.152344 19.703125 22.878906 20.246094 L 1.90625 20.246094 C 0.859375 20.246094 0 20.960938 0 21.84375 L 0 42.683594 C 0 43.566406 0.859375 44.28125 1.90625 44.28125 L 47.089844 44.28125 C 48.140625 44.28125 49 43.566406 49 42.683594 L 49 21.84375 C 49 20.960938 48.140625 20.246094 47.089844 20.246094 Z M 47.671875 42.683594 C 47.671875 42.957031 47.414062 43.175781 47.089844 43.175781 L 1.90625 43.175781 C 1.582031 43.175781 1.324219 42.953125 1.324219 42.683594 L 1.324219 21.84375 C 1.324219 21.574219 1.582031 21.355469 1.90625 21.355469 L 47.089844 21.355469 C 47.414062 21.355469 47.671875 21.574219 47.671875 21.84375 Z M 6.683594 24.679688 L 10.882812 24.679688 L 10.882812 28.195312 L 6.683594 28.195312 Z M 12.871094 24.679688 L 17.066406 24.679688 L 17.066406 28.195312 L 12.871094 28.195312 Z M 19.324219 24.679688 L 23.519531 24.679688 L 23.519531 28.195312 L 19.324219 28.195312 Z M 25.59375 24.679688 L 29.792969 24.679688 L 29.792969 28.195312 L 25.59375 28.195312 Z M 31.78125 24.679688 L 35.980469 24.679688 L 35.980469 28.195312 L 31.78125 28.195312 Z M 38.035156 24.679688 L 42.234375 24.679688 L 42.234375 28.195312 L 38.035156 28.195312 Z M 12.941406 36.675781 L 29.820312 36.675781 L 29.820312 40.191406 L 12.941406 40.191406 Z M 17.027344 34.019531 L 17.027344 30.507812 L 6.644531 30.507812 L 6.644531 34.019531 Z M 6.683594 36.675781 L 10.882812 36.675781 L 10.882812 40.191406 L 6.683594 40.191406 Z M 19.28125 30.507812 L 23.480469 30.507812 L 23.480469 34.019531 L 19.28125 34.019531 Z M 25.546875 30.507812 L 29.746094 30.507812 L 29.746094 34.019531 L 25.546875 34.019531 Z M 31.738281 30.507812 L 35.9375 30.507812 L 35.9375 34.019531 L 31.738281 34.019531 Z M 37.988281 30.507812 L 42.1875 30.507812 L 42.1875 34.019531 L 37.988281 34.019531 Z M 31.78125 36.675781 L 35.980469 36.675781 L 35.980469 40.191406 L 31.78125 40.191406 Z M 38.035156 36.675781 L 42.234375 36.675781 L 42.234375 40.191406 L 38.035156 40.191406 Z M 38.035156 36.675781 "/>
</g>
</svg>
