<?xml version="1.0" encoding="UTF-8"?>
<svg xmlns="http://www.w3.org/2000/svg" xmlns:xlink="http://www.w3.org/1999/xlink" width="60pt" height="60pt" viewBox="0 0 60 60" version="1.1">
<g id="surface1">
<path style=" stroke:none;fill-rule:nonzero;fill:rgb(0%,0%,0%);fill-opacity:1;" d="M 31.644531 13.261719 C 31.601562 13.210938 31.566406 13.171875 31.519531 13.128906 C 30.984375 12.652344 30.972656 12.796875 31.554688 12.265625 C 31.984375 11.875 32.515625 11.574219 32.988281 11.230469 C 34.246094 10.339844 35.074219 9.144531 35.640625 7.722656 C 36.894531 4.535156 33.191406 2.335938 31.339844 0.449219 C 29.988281 -0.917969 27.875 1.164062 29.21875 2.527344 C 30.257812 3.582031 31.589844 4.433594 32.496094 5.605469 C 33.503906 6.917969 31.96875 8.363281 30.910156 9.097656 C 29.28125 10.222656 27.871094 11.722656 28.199219 13.332031 C 20.867188 13.996094 14.101562 17.941406 14.101562 24.882812 L 14.101562 44.382812 C 14.101562 52.992188 21.234375 60 30.007812 60 C 38.777344 60 45.910156 52.992188 45.910156 44.382812 L 45.910156 24.882812 C 45.910156 17.304688 38.730469 13.632812 31.644531 13.261719 Z M 17.09375 24.882812 C 17.09375 19.726562 22.792969 16.738281 28.699219 16.246094 L 28.699219 34.230469 C 23.316406 33.964844 18.949219 32.761719 17.09375 32.171875 Z M 42.917969 44.382812 C 42.917969 51.378906 37.128906 57.058594 30.007812 57.058594 C 22.882812 57.058594 17.09375 51.378906 17.09375 44.382812 L 17.09375 35.261719 C 19.769531 36.054688 24.804688 37.261719 30.75 37.261719 C 34.558594 37.261719 38.734375 36.761719 42.917969 35.347656 Z M 42.917969 32.21875 C 39.132812 33.640625 35.269531 34.195312 31.691406 34.273438 L 31.691406 16.207031 C 37.46875 16.546875 42.917969 19.265625 42.917969 24.886719 Z M 42.917969 32.21875 "/>
</g>
</svg>
