<svg xmlns="http://www.w3.org/2000/svg" width="44" height="59" viewBox="0 0 44 59"><defs><mask id="hnzdb" width="2" height="2" x="-1" y="-1"><path fill="#fff" d="M7 2h30v45H7z"/><path d="M22 2c8.284 0 15 6.716 15 15v15c0 8.284-6.716 15-15 15-8.284 0-15-6.716-15-15V17C7 8.716 13.716 2 22 2z"/></mask><filter id="hnzda" width="66" height="86" x="-11" y="-16" filterUnits="userSpaceOnUse"><feOffset dy="5" in="SourceGraphic" result="FeOffset1073Out"/><feGaussianBlur in="FeOffset1073Out" result="FeGaussianBlur1074Out" stdDeviation="3.2 3.2"/></filter></defs><g><g><g filter="url(#hnzda)"><path fill="none" d="M22 2c8.284 0 15 6.716 15 15v15c0 8.284-6.716 15-15 15-8.284 0-15-6.716-15-15V17C7 8.716 13.716 2 22 2z" mask="url(&quot;#hnzdb&quot;)"/><path fill="#006cff" fill-opacity=".75" d="M22 2c8.284 0 15 6.716 15 15v15c0 8.284-6.716 15-15 15-8.284 0-15-6.716-15-15V17C7 8.716 13.716 2 22 2z"/></g><path fill="#006cff" d="M22 2c8.284 0 15 6.716 15 15v15c0 8.284-6.716 15-15 15-8.284 0-15-6.716-15-15V17C7 8.716 13.716 2 22 2z"/></g><g><g><text fill="#fff" dominant-baseline="text-before-edge" font-family="'Material-Design-Iconic-Font','Material-Design-Iconic-Font'" font-size="16" font-style="none" font-weight="400" transform="translate(16 17)"><tspan style="font-kerning:normal"></tspan></text></g></g></g></svg>